<?xml version="1.0" standalone="no"?>
<!DOCTYPE svg PUBLIC "-//W3C//DTD SVG 20010904//EN"
 "http://www.w3.org/TR/2001/REC-SVG-20010904/DTD/svg10.dtd">
<svg version="1.0" xmlns="http://www.w3.org/2000/svg"
 width="980.000000pt" height="982.000000pt" viewBox="0 0 980.000000 982.000000"
 preserveAspectRatio="xMidYMid meet">

<g transform="translate(0.000000,982.000000) scale(0.100000,-0.100000)"
fill="#000000" stroke="none">
<path d="M2340 9787 c-87 -31 -116 -52 -145 -101 -38 -66 -46 -142 -52 -478
l-6 -318 -112 0 c-634 0 -1105 -472 -1105 -1106 l0 -114 -247 -1 c-321 0 -442
-10 -511 -39 -209 -90 -216 -428 -11 -533 49 -25 73 -30 185 -37 71 -5 231 -9
357 -10 l227 0 0 -304 0 -304 -343 -4 c-323 -4 -345 -5 -397 -26 -137 -54
-210 -215 -165 -367 28 -99 82 -157 177 -193 36 -14 100 -17 386 -20 l342 -3
0 -305 0 -304 -167 -1 c-93 0 -252 -4 -355 -8 -180 -7 -189 -8 -245 -37 -207
-106 -201 -443 9 -534 70 -30 187 -39 501 -40 l257 0 0 -305 0 -305 -272 0
c-391 0 -490 -14 -557 -78 -55 -53 -84 -135 -85 -237 0 -130 50 -211 164 -264
l55 -26 348 -3 347 -3 -2 -307 -3 -307 -350 -5 -350 -5 -58 -29 c-203 -99
-207 -430 -6 -531 68 -35 178 -45 497 -45 l272 0 0 -113 c0 -462 245 -848 649
-1023 108 -46 231 -72 404 -84 78 -5 148 -10 155 -10 9 0 12 -57 12 -252 1
-477 25 -563 174 -629 153 -67 331 -12 400 124 29 56 30 65 37 245 4 103 8
262 8 355 l1 167 303 -2 302 -3 6 -340 c3 -211 10 -353 17 -373 33 -97 96
-160 188 -188 155 -47 321 25 375 164 22 54 23 73 27 400 l4 342 304 0 304 0
1 -252 c0 -354 9 -451 45 -519 109 -202 444 -195 533 12 29 67 40 212 41 522
l0 237 304 0 304 0 4 -342 c4 -327 5 -346 27 -400 42 -106 152 -178 275 -178
140 0 245 74 288 202 7 20 14 162 17 373 l6 340 303 3 302 2 1 -167 c0 -93 4
-252 8 -355 7 -180 8 -189 37 -245 69 -136 247 -191 400 -124 149 66 173 152
174 628 l0 251 78 6 c272 21 385 44 510 101 280 130 521 412 592 693 18 74 26
135 46 370 l6 62 241 0 c443 0 550 21 609 120 109 179 51 401 -121 467 -39 14
-97 18 -391 23 l-345 5 -3 307 -2 307 348 3 347 3 68 33 c105 52 152 134 152
267 -1 99 -28 167 -90 224 -75 69 -104 74 -487 79 l-338 4 0 304 0 304 258 0
c415 1 512 17 584 98 53 62 72 116 72 212 1 75 -3 92 -29 145 -19 37 -46 71
-73 92 -75 57 -110 62 -478 69 l-334 7 0 304 0 303 303 0 c313 0 404 8 466 40
50 25 96 76 123 135 32 70 32 190 0 260 -31 68 -85 121 -152 147 -52 21 -73
22 -397 26 l-343 4 0 304 0 304 208 0 c266 0 480 14 543 35 102 34 162 137
163 281 1 71 -3 88 -29 139 -19 37 -46 72 -73 92 -78 59 -112 64 -474 70
l-327 6 -5 61 c-20 231 -28 294 -47 368 -43 169 -133 321 -279 468 -198 200
-418 297 -712 315 -57 3 -122 8 -145 11 l-43 5 0 252 c-1 308 -10 426 -40 495
-90 210 -435 213 -536 6 -27 -55 -29 -68 -35 -239 -4 -99 -8 -258 -8 -352 l-1
-173 -305 0 -305 0 0 308 c0 317 -7 398 -40 462 -25 49 -76 95 -135 122 -70
32 -190 32 -260 0 -68 -31 -121 -85 -147 -152 -21 -52 -22 -74 -26 -397 l-4
-343 -303 0 -302 0 -6 323 c-5 353 -12 402 -60 474 -108 161 -386 161 -494 0
-48 -72 -55 -121 -60 -474 l-6 -323 -302 0 -303 0 -4 343 c-4 323 -5 345 -26
397 -26 67 -79 121 -147 152 -70 32 -190 32 -260 0 -59 -27 -110 -73 -135
-122 -33 -64 -40 -145 -40 -462 l0 -308 -305 0 -305 0 -1 168 c0 92 -4 250 -8
352 -6 154 -11 193 -28 231 -62 138 -229 202 -383 146z m5195 -1517 c238 -5
415 -13 437 -20 88 -26 196 -137 264 -272 l34 -68 0 -3001 0 -3001 -47 -90
c-58 -114 -122 -179 -220 -226 l-73 -34 -238 -9 c-311 -11 -5288 -10 -5590 0
l-232 9 -73 35 c-98 46 -162 111 -220 225 l-47 90 0 2734 c1 1503 5 2860 9
3016 l9 283 35 72 c47 96 119 165 227 222 l85 44 2620 0 c1441 0 2800 -4 3020
-9z"/>
<path d="M3511 7583 c-24 -137 -45 -260 -48 -274 l-5 -26 89 -7 c222 -18 331
-66 386 -171 26 -51 35 -199 17 -317 -26 -182 -451 -2489 -475 -2575 -75 -282
-201 -378 -545 -417 l-105 -12 -47 -249 c-26 -138 -47 -260 -47 -272 l-1 -23
1138 0 c1345 0 1618 10 2015 70 583 89 1012 294 1372 655 373 374 628 858 738
1405 71 349 79 774 22 1115 -120 710 -538 1112 -1315 1265 -371 72 -550 80
-1961 80 l-1186 0 -42 -247z m2539 -329 c453 -76 728 -371 817 -879 21 -124
24 -479 5 -635 -40 -321 -124 -603 -260 -879 -115 -234 -251 -421 -434 -596
-221 -213 -468 -349 -743 -411 -41 -9 -142 -18 -246 -21 -319 -10 -464 28
-519 137 -23 44 -27 162 -9 239 5 24 113 622 240 1330 126 707 239 1320 250
1361 63 233 206 341 488 371 101 10 293 2 411 -17z"/>
</g>
</svg>
